<svg
                  xmlns="http://www.w3.org/2000/svg"
                  id="Icone_Alerta"
                  data-name="Icone Alerta"
                  width="48"
                  height="48"
                  viewBox="-2 -2 52 52"
                >
                  <path
                    id="Caminho_49"
                    data-name="Caminho 49"
                    d="M237.662-320.691a2.4,2.4,0,0,0-1.438,1.3c-.2.436-.224.849-.224,5.4,0,4.185.024,4.987.177,5.364a2.371,2.371,0,0,0,4.362,0,68.725,68.725,0,0,0-.012-10.681,2.4,2.4,0,0,0-1.509-1.379A1.523,1.523,0,0,0,237.662-320.691Z"
                    transform="translate(-214.386 333.814)"
                    fill="#ffb404"
                    stroke-linecap="round"
                    stroke-linejoin="round"
                    stroke-width="2"
                  />
                  <path
                    id="Caminho_50"
                    data-name="Caminho 50"
                    d="M237.428-172.8a2.3,2.3,0,0,0-1.132,3.041,2.208,2.208,0,0,0,2.134,1.367,2.186,2.186,0,0,0,2.134-1.367A2.289,2.289,0,0,0,238.407-173,2.753,2.753,0,0,0,237.428-172.8Z"
                    transform="translate(-214.459 203.395)"
                    fill="#ffb404"
                    stroke-linecap="round"
                    stroke-linejoin="round"
                    stroke-width="2"
                  />
                  <path
                    id="Caminho_51"
                    data-name="Caminho 51"
                    d="M583.317,71.3a23.984,23.984,0,1,0-23.984-23.984A23.984,23.984,0,0,0,583.317,71.3Z"
                    transform="translate(-559.333 -23.333)"
                    fill="none"
                    stroke="#ffb404"
                    stroke-linecap="round"
                    stroke-linejoin="round"
                    stroke-width="2"
                  />
                </svg>