<svg
                  xmlns="http://www.w3.org/2000/svg"
                  id="Icone_Calendário"
                  data-name="Icone Calendário"
                  width="48"
                  height="48"
                  viewBox="0 0 64 64"
                >
                  <path
                    id="Caminho_52"
                    data-name="Caminho 52"
                    d="M37.387-511.786a3,3,0,0,0-1.795,3.124v.762l-2.741.05c-2.407.038-2.852.088-3.492.312a5.277,5.277,0,0,0-3.116,2.824c-.223.612-.237,2.024-.25,26.655,0,28.7-.07,26.63.876,27.88a5.392,5.392,0,0,0,2.727,1.787c.863.25,1.35.25,28.4.25s27.533,0,28.4-.25a5.392,5.392,0,0,0,2.727-1.787c.946-1.25.876.825.876-27.83,0-28.9.083-26.618-.974-27.892a6.34,6.34,0,0,0-2.616-1.737,23.455,23.455,0,0,0-3.256-.2l-2.755-.062v-.762a6.148,6.148,0,0,0-.139-1.262c-.543-2.1-3.77-2.949-5.593-1.475a2.676,2.676,0,0,0-1.085,2.487v1.037H42.41v-1.037a2.676,2.676,0,0,0-1.085-2.487A3.9,3.9,0,0,0,37.387-511.786Zm2.574,1.8c.334.237.362.325.362,1.187v.925H37.679v-.75c0-.762.25-1.425.584-1.537A2.388,2.388,0,0,1,39.961-509.986Zm37.8-.1c.39.262.543.675.543,1.45v.762H75.66v-.925c0-.862.028-.95.362-1.187A1.953,1.953,0,0,1,77.761-510.086ZM35.62-504.225c.042,1.55.083,1.862.348,2.312a3.35,3.35,0,0,0,2.741,1.537.96.96,0,0,0,1.03-.612c.25-.637-.153-1.05-1.294-1.35-.626-.163-.765-.537-.765-2.2V-506H73.574v1.712a4.712,4.712,0,0,0,.264,2.224c.71,1.387,2.7,2.149,3.562,1.375a.993.993,0,0,0,.348-.625,1.165,1.165,0,0,0-1.016-.937,1.472,1.472,0,0,1-.71-.262c-.362-.25-.362-.275-.362-1.874V-506h4.675a52.47,52.47,0,0,1,5.273.137,3.454,3.454,0,0,1,2.031,1.537c.237.462.264.912.264,5.161v4.661l-22.413.025-22.413.038-.334.35c-.4.425-.417.7-.042,1.137l.278.325H87.9v12.434c0,13.546.042,12.759-.793,13.446-.682.562-1.071.612-5.342.612-3.756,0-4.062.013-4.814.262a4.668,4.668,0,0,0-2.407,2.049c-.334.612-.348.7-.417,4.624a22.473,22.473,0,0,1-.236,4.261,3.154,3.154,0,0,1-1.6,1.112c-.25.037-9.822.05-21.258.037l-20.8-.037-.668-.35a2.709,2.709,0,0,1-1.071-1l-.417-.65v-36.8h5.843c5.662,0,5.857-.013,6.121-.25a.893.893,0,0,0,.014-1.262l-.264-.3-5.857-.038-5.857-.038v-4.649c0-4.249.028-4.7.264-5.161a3.553,3.553,0,0,1,1.934-1.525,23.685,23.685,0,0,1,2.908-.137L35.565-506Zm50.892,39.877c0,.013-2.337,2.124-5.175,4.686l-5.189,4.649.07-3.911c.1-5.586-.264-5.249,5.7-5.336,2.254-.038,4.215-.087,4.355-.1S86.512-464.374,86.512-464.349Zm1,12.884a3.04,3.04,0,0,1-1.071,1.012l-.668.375-27.644.038-27.644.025-.751-.35a2.408,2.408,0,0,1-1.2-1.025,2.661,2.661,0,0,1-.459-1.037v-.362l.459.25c1.224.687.125.662,24.11.625l22.107-.038.9-.4c.793-.35,1.6-1.025,6.539-5.473l5.635-5.061.042,5.386.028,5.4Z"
                    transform="translate(-25.992 512.141)"
                    fill="#975ec9"
                  />
                  <path
                    id="Caminho_53"
                    data-name="Caminho 53"
                    d="M72.457-325.641a1.709,1.709,0,0,0-1.2.811c-.228.367-.253.659-.253,3.257,0,3.143.038,3.282.836,3.815.33.215.634.241,3.219.241,2.636,0,2.877-.025,3.27-.253.786-.482.912-1,.912-3.8,0-2.319-.013-2.522-.279-3.042-.507-.989-.786-1.077-3.65-1.1A26.362,26.362,0,0,0,72.457-325.641Zm4.854,4.03.025,2.192H72.9v-4.436l2.192.025,2.18.038Z"
                    transform="translate(-65.296 348.968)"
                    fill="#975ec9"
                  />
                  <path
                    id="Caminho_54"
                    data-name="Caminho 54"
                    d="M174.457-325.641a1.709,1.709,0,0,0-1.2.811c-.228.367-.253.659-.253,3.232,0,3.13.051,3.371.8,3.827.368.228.646.253,3.257.253,4.182,0,4.119.063,4.119-4.055,0-2.509-.025-2.763-.253-3.168-.507-.862-.836-.951-3.612-.976A26.362,26.362,0,0,0,174.457-325.641Zm4.854,4.03.025,2.192H174.9v-4.436l2.192.025,2.18.038Z"
                    transform="translate(-152.25 348.968)"
                    fill="#975ec9"
                  />
                  <path
                    id="Caminho_55"
                    data-name="Caminho 55"
                    d="M276-325.641a1.854,1.854,0,0,0-1.267.938c-.2.355-.228.76-.228,3.13,0,4.119-.063,4.055,4.119,4.055s4.055.114,4.055-4.081c0-4.106.025-4.081-3.8-4.119A26.954,26.954,0,0,0,276-325.641Zm4.778,4v2.218h-4.436v-2.129a14.567,14.567,0,0,1,.089-2.218,14.574,14.574,0,0,1,2.218-.089h2.129Z"
                    transform="translate(-239.424 348.968)"
                    fill="#975ec9"
                  />
                  <path
                    id="Caminho_56"
                    data-name="Caminho 56"
                    d="M378-325.641a1.855,1.855,0,0,0-1.267.938c-.2.355-.228.76-.228,3.13,0,4.119-.063,4.055,4.119,4.055,2.585,0,2.889-.025,3.219-.241.8-.532.836-.672.836-3.815,0-4.144.038-4.106-3.8-4.144A26.955,26.955,0,0,0,378-325.641Zm4.778,4v2.218h-4.436v-2.129a14.56,14.56,0,0,1,.089-2.218,14.573,14.573,0,0,1,2.218-.089h2.129Z"
                    transform="translate(-326.378 348.968)"
                    fill="#975ec9"
                  />
                  <path
                    id="Caminho_57"
                    data-name="Caminho 57"
                    d="M72.411-232.649a2.2,2.2,0,0,0-1.153.938c-.152.317-.19.862-.152,3.282.038,2.889.038,2.889.355,3.232.621.659.8.7,3.7.7,3.042,0,3.346-.076,3.84-.9.228-.393.253-.659.253-3.244,0-2.636-.013-2.826-.266-3.156-.634-.862-.7-.874-3.637-.9C73.868-232.7,72.55-232.687,72.411-232.649Zm4.981,4.055.025,2.192H72.981v-4.436l2.192.025,2.18.038Z"
                    transform="translate(-65.376 267.549)"
                    fill="#975ec9"
                  />
                  <path
                    id="Caminho_58"
                    data-name="Caminho 58"
                    d="M174.217-232.628a2.043,2.043,0,0,0-.608.342c-.57.507-.608.773-.608,3.713,0,3.054.025,3.206.735,3.739.317.228.57.253,3.156.291,3.194.038,3.485-.013,3.992-.849.279-.431.291-.57.291-3.181,0-2.5-.025-2.763-.253-3.156a2.972,2.972,0,0,0-.608-.7c-.342-.253-.532-.266-3.042-.292A24.826,24.826,0,0,0,174.217-232.628Zm5.095,4.017.025,2.192H174.9v-4.436l2.192.025,2.18.038Z"
                    transform="translate(-152.25 267.566)"
                    fill="#975ec9"
                  />
                  <path
                    id="Caminho_59"
                    data-name="Caminho 59"
                    d="M275.3-232.62a2.07,2.07,0,0,0-1.077,1.381,17.489,17.489,0,0,0-.089,2.928c.038,2.256.063,2.459.329,2.877.494.811.8.874,3.827.874,3,0,3.333-.076,3.8-.824.228-.38.253-.621.253-3.244,0-2.585-.025-2.877-.253-3.244-.494-.824-.646-.862-3.675-.887A10.924,10.924,0,0,0,275.3-232.62Zm5.145,3.941v2.218h-4.436v-2.129a14.573,14.573,0,0,1,.089-2.218,14.562,14.562,0,0,1,2.218-.089h2.129Z"
                    transform="translate(-239.1 267.609)"
                    fill="#975ec9"
                  />
                  <path
                    id="Caminho_60"
                    data-name="Caminho 60"
                    d="M378-230.641a1.855,1.855,0,0,0-1.267.938c-.2.355-.228.76-.228,3.13,0,4.119-.063,4.055,4.119,4.055,2.585,0,2.889-.025,3.219-.241.8-.532.836-.672.836-3.815,0-4.144.038-4.106-3.8-4.144A26.967,26.967,0,0,0,378-230.641Zm4.778,4v2.218h-4.436v-2.129a14.559,14.559,0,0,1,.089-2.218,14.562,14.562,0,0,1,2.218-.089h2.129Z"
                    transform="translate(-326.378 265.815)"
                    fill="#975ec9"
                  />
                  <path
                    id="Caminho_61"
                    data-name="Caminho 61"
                    d="M72.014-139.772a2.067,2.067,0,0,0-.722.646c-.279.418-.291.532-.291,3.244s.013,2.826.291,3.244c.532.8.836.874,3.84.874,2.56,0,2.687-.013,3.092-.291.938-.634.95-.672.95-3.827s-.013-3.194-.95-3.84c-.406-.266-.532-.279-3.092-.279C72.838-140,72.394-139.962,72.014-139.772Zm5.323,3.891v2.218H72.9V-138.1h4.436Z"
                    transform="translate(-65.296 186.14)"
                    fill="#975ec9"
                  />
                  <path
                    id="Caminho_62"
                    data-name="Caminho 62"
                    d="M174.514-139.823a2.627,2.627,0,0,0-.7.52l-.317.342v6.172l.38.393c.57.583.989.659,3.891.608,2.864-.038,2.94-.063,3.574-.912.253-.329.266-.52.266-3.181,0-3.156-.013-3.194-.951-3.84-.406-.266-.52-.279-3.092-.279A12.469,12.469,0,0,0,174.514-139.823Zm5.259,3.941v2.218h-4.436V-138.1h4.436Z"
                    transform="translate(-152.683 186.14)"
                    fill="#975ec9"
                  />
                  <path
                    id="Caminho_63"
                    data-name="Caminho 63"
                    d="M275.451-139.721c-.8.545-.951.887-.951,2.129,0,1.331.177,1.648.951,1.648.7,0,.887-.291.887-1.305v-.849h4.436v4.436h-4.385l-.139-.38a.884.884,0,0,0-1.609.025,1.521,1.521,0,0,0,.329,1.584c.545.608.912.672,3.65.672s3.092-.063,3.675-.7l.317-.342v-6.159l-.317-.342c-.583-.634-.912-.7-3.777-.7C275.983-140,275.856-139.987,275.451-139.721Z"
                    transform="translate(-239.429 186.14)"
                    fill="#975ec9"
                  />
                </svg>