<svg xmlns="http://www.w3.org/2000/svg" width="46.009" height="44.922" viewBox="0 0 46.009 44.922">
  <g id="dashboard-interface" transform="translate(0.044 0.049)">
    <path id="Caminho_3" data-name="Caminho 3" d="M2.923-511.625a3.4,3.4,0,0,0-2.144,1.806l-.278.57v6.225l.278.57a3.322,3.322,0,0,0,1.651,1.613l.583.272H43.837l.6-.281a3.3,3.3,0,0,0,1.633-1.6l.278-.57v-6.225l-.278-.57a3.3,3.3,0,0,0-1.633-1.6l-.6-.281-20.278-.018C7.355-511.73,3.21-511.712,2.923-511.625Z" transform="translate(-0.465 511.723)" fill="#fff" stroke="#707070" stroke-linecap="round" stroke-width="0.1"/>
    <path id="Caminho_4" data-name="Caminho 4" d="M2.429-340.647a3.329,3.329,0,0,0-2.144,2.139c-.179.561-.179.8-.162,12.845L.15-313.387l.278.57A3.322,3.322,0,0,0,2.079-311.2l.583.272H18.633l.6-.289a3.629,3.629,0,0,0,1.7-1.754l.206-.5.027-12.047c.018-7.988-.009-12.214-.072-12.538a3.366,3.366,0,0,0-1.866-2.437l-.511-.245-7.941-.018C4.089-340.778,2.779-340.761,2.429-340.647Z" transform="translate(-0.115 355.756)" fill="#fff" stroke="#707070" stroke-linecap="round" stroke-width="0.1"/>
    <path id="Caminho_5" data-name="Caminho 5" d="M279.77-340.952a3.56,3.56,0,0,0-2.064,1.946c-.206.491-.206.535-.206,4.445,0,3.928,0,3.946.206,4.445a3.629,3.629,0,0,0,1.7,1.754l.6.289h15.971l.6-.281a3.3,3.3,0,0,0,1.633-1.6l.278-.57.027-3.849c.027-3.656.018-3.875-.153-4.428a3.308,3.308,0,0,0-2.189-2.157C295.517-341.153,280.416-341.145,279.77-340.952Z" transform="translate(-252.611 356.061)" fill="#fff" stroke="#707070" stroke-linecap="round" stroke-width="0.1"/>
    <path id="Caminho_6" data-name="Caminho 6" d="M279.77-148.952a3.56,3.56,0,0,0-2.064,1.946c-.206.491-.206.535-.206,4.445,0,3.928,0,3.946.206,4.445a3.629,3.629,0,0,0,1.7,1.754l.6.289h15.971l.6-.281a3.3,3.3,0,0,0,1.633-1.6l.278-.57.027-3.849c.027-3.656.018-3.875-.153-4.428a3.308,3.308,0,0,0-2.189-2.157C295.517-149.153,280.416-149.145,279.77-148.952Z" transform="translate(-252.611 180.895)" fill="#fff" stroke="#707070" stroke-linecap="round" stroke-width="0.1"/>
  </g>
</svg>