<svg
                  id="Icone_cifrão"
                  data-name="Icone cifrão"
                  width="48"
                  height="48"
                  viewBox="-2 -2 52 52"
                >
                  <path
                    id="Caminho_28"
                    data-name="Caminho 28"
                    d="M267.317,23.333A23.984,23.984,0,1,0,291.3,47.317,23.984,23.984,0,0,0,267.317,23.333Z"
                    transform="translate(-243.333 -23.333)"
                    fill="none"
                    stroke="#12a454"
                    stroke-linecap="round"
                    stroke-linejoin="round"
                    stroke-width="2"
                  />
                  <path
                    id="Caminho_2"
                    data-name="Caminho 2"
                    d="M210.084-362.681c-.731.366-.921.951-.921,2.822a6.441,6.441,0,0,1-.1,1.623,11.916,11.916,0,0,0-2.691.731,8.247,8.247,0,0,0-2.53,2.4,6.552,6.552,0,0,0,0,6.317,8.248,8.248,0,0,0,2.53,2.4,10.389,10.389,0,0,0,4.665.731c1.769,0,2.179.044,2.632.278a3.072,3.072,0,0,1-.146,5.63c-.453.19-1.287.234-4.8.234-4.562,0-4.986.058-5.469.746a1.731,1.731,0,0,0,0,1.725c.439.614,1.038.746,3.568.746h2.34v1.623c0,1.886.19,2.471.951,2.822a1.1,1.1,0,0,0,1.316,0c.76-.351.951-.936.951-2.822a5.407,5.407,0,0,1,.117-1.623,12.012,12.012,0,0,0,2.676-.731,8.248,8.248,0,0,0,2.53-2.4,6.552,6.552,0,0,0,0-6.317,8.248,8.248,0,0,0-2.53-2.4,10.4,10.4,0,0,0-4.592-.731c-2.193,0-2.764-.132-3.524-.848a3.083,3.083,0,0,1,.819-5.016c.5-.249.907-.278,4.869-.278,4.635,0,5.06-.059,5.542-.746a1.756,1.756,0,0,0,.234-.863,1.755,1.755,0,0,0-.234-.863c-.439-.614-1.038-.746-3.568-.746h-2.34v-1.623c0-1.886-.19-2.471-.951-2.822A1.141,1.141,0,0,0,210.084-362.681Z"
                    transform="translate(-186.789 371.252)"
                    fill="#1da85c"
                    stroke-linecap="round"
                    stroke-linejoin="round"
                    stroke-width="2"
                  />
                </svg>