<svg width="44" height="44" viewBox="0 0 26 30" fill="none" xmlns="http://www.w3.org/2000/svg">
<path d="M1.568 0.2153C0.80079 0.427215 0.201245 1.06311 0.0437376 1.83331C0.00817134 1.99878 -0.00707132 4.66101 0.00309045 9.81485L0.0183331 17.5432L0.206326 17.9309C0.440047 18.4116 0.775385 18.7476 1.25299 18.9751L1.59341 19.1405L12.8476 19.156C20.2453 19.1612 24.183 19.1508 24.3405 19.1147C24.9655 18.9802 25.4888 18.5563 25.7886 17.936L25.9817 17.5432L25.9969 9.81485C26.0071 4.76437 25.9918 1.99878 25.9563 1.83853C25.8242 1.19751 25.377 0.628875 24.7775 0.344542L24.4066 0.168822L13.1016 0.158416C4.21515 0.153258 1.74583 0.163573 1.568 0.2153ZM24.117 1.17166C24.1932 1.21814 24.1475 1.26471 17.8268 7.21988C15.4947 9.422 13.4573 11.345 13.2998 11.5001L13.0203 11.7741L11.8263 10.6523C4.35741 3.61676 1.82713 1.20782 1.88302 1.1665C1.96939 1.11478 24.0306 1.11478 24.117 1.17166ZM5.20592 5.76208L9.29603 9.6236L9.05215 9.86658C8.50342 10.4145 1.0904 17.4087 1.05991 17.4087C1.03959 17.4087 1.00911 17.3364 0.988783 17.2485C0.948136 17.0366 0.948136 2.2727 0.988783 2.06082C1.00911 1.9729 1.04467 1.90054 1.07008 1.90054C1.09548 1.90054 2.95509 3.63745 5.20592 5.76208ZM25.0112 2.06082C25.0265 2.14865 25.0417 5.56564 25.0417 9.6546C25.0417 13.7436 25.0265 17.1606 25.0112 17.2485C24.9909 17.3364 24.9604 17.4087 24.9452 17.4087C24.869 17.4087 16.709 9.63397 16.7446 9.59778C19.4019 7.08026 24.9147 1.90054 24.9401 1.90054C24.9604 1.90054 24.9909 1.9729 25.0112 2.06082ZM11.4656 11.6707C12.1464 12.3117 12.7561 12.8649 12.8273 12.901C12.9035 12.9424 13.0152 12.9579 13.1016 12.9372C13.1982 12.9165 13.7113 12.472 14.6106 11.619C15.7843 10.5127 15.9825 10.3422 16.0587 10.3939C16.1044 10.43 17.9589 12.1773 20.1793 14.2812C23.1618 17.1089 24.1932 18.1169 24.1322 18.1428C24.0255 18.1893 1.97447 18.1893 1.86778 18.1428C1.81189 18.1169 2.87887 17.0779 5.902 14.2141C9.99212 10.3422 10.0124 10.3266 10.1242 10.4145C10.1852 10.4662 10.7898 11.0297 11.4656 11.6707Z" fill="white"/>
</svg>
