<svg width="35" height="36" viewBox="0 0 35 36" fill="none" xmlns="http://www.w3.org/2000/svg">
<path d="M16.2135 0.48295C10.4865 0.931131 5.39655 4.11656 2.43028 9.10154C0.183314 12.8799 -0.549691 17.5547 0.416231 21.926C1.74523 27.9383 6.14325 32.8199 11.9867 34.7849C12.8499 35.0745 14.3159 35.4399 14.6173 35.4399H14.7612V29.3035V23.1671H12.5348H10.3084V20.6159V18.0649H12.5348H14.7612V15.6241C14.7612 13.7556 14.7886 13.0454 14.8639 12.5766C15.364 9.66001 17.2411 7.79841 20.0909 7.37782C20.8376 7.2675 23.0435 7.32267 24.3382 7.48124L25.311 7.60536V9.79103V11.9767L23.8587 12.018C22.2145 12.0594 21.872 12.1284 21.2897 12.5283C21.0911 12.6593 20.8376 12.9144 20.7211 13.0868C20.3307 13.6797 20.2964 13.9073 20.2621 16.0791L20.2279 18.0649H22.6667C24.8109 18.0649 25.1055 18.0787 25.1055 18.1683C25.1055 18.2855 24.4478 22.6637 24.3793 22.9809L24.3382 23.1671H22.2899H20.2416V29.3035V35.4399H20.3855C20.6869 35.4399 22.1529 35.0745 23.0161 34.7849C26.5715 33.5921 29.5172 31.4064 31.7368 28.3175C34.614 24.3116 35.6621 19.1198 34.5866 14.2037C33.2781 8.23969 28.8116 3.27537 23.0229 1.34483C20.8855 0.634653 18.3851 0.317484 16.2135 0.48295Z" fill="#162BDB"/>
</svg>
