<svg width="7.5rem" height="7.5rem" viewBox="0 0 140 140" fill="none" xmlns="http://www.w3.org/2000/svg">
<path d="M75.1766 18.6388C69.579 19.4746 66.5814 21.4558 64.532 25.635C62.452 29.938 62.5437 28.2973 62.3602 62.9998L62.1767 94.359L59.4238 95.3496C50.4309 98.631 46.9744 102.965 48.2591 109.311C49.7274 116.648 57.4967 121.601 65.5414 120.301C69.8237 119.62 72.9437 117.36 74.8707 113.521C76.9201 109.342 76.8283 111.23 76.9507 77.9519L77.0425 47.862H80.6824H84.353V46.0045V44.1471H80.6824H77.0119V38.6368C77.0119 32.2598 77.3483 30.5881 78.9083 29.0712C80.6213 27.3995 82.5789 26.9971 84.5059 27.9258C85.5765 28.4211 86.6777 30.4952 87.0142 32.5693L87.1977 33.6218H89.5836C91.3882 33.6218 92 33.529 92 33.2194C92 32.074 90.6847 27.802 89.8282 26.1922C87.1365 21.0534 80.8354 17.803 75.1766 18.6388ZM62.5437 102.563C62.3602 106.742 62.2379 107.609 61.6567 108.816C60.372 111.385 58.4144 112.066 55.9979 110.797C54.1932 109.868 53.4591 108.506 53.4591 106.215C53.4591 104.544 53.5815 104.079 54.4685 102.779C55.5085 101.2 57.8332 99.4669 60.3414 98.3834C62.8802 97.2999 62.7579 97.0832 62.5437 102.563Z" fill="white" stroke="white" stroke-width="0.1"/>
<path d="M69.9998 1.97662C107.296 1.97662 137.531 32.2115 137.531 69.5081C137.531 106.805 107.296 137.04 69.9998 137.04C32.7031 137.04 2.46826 106.805 2.46826 69.5081C2.46826 32.2115 32.7031 1.97662 69.9998 1.97662Z" stroke="white" stroke-width="3"/>
</svg>
