<svg
                  xmlns="http://www.w3.org/2000/svg"
                  id="flying-money"
                  width="48"
                  height="48"
                  viewBox="0 0 64 64"
                >
                  <path
                    id="Caminho_10"
                    data-name="Caminho 10"
                    d="M48.763-511.677a7.145,7.145,0,0,0-2.04,2.485,7.817,7.817,0,0,0-1.026,4.081l-.074,1.669-.544.618a8.974,8.974,0,0,0-2.065,5.775l-.025,1.434-.507.668a8.486,8.486,0,0,0-1.509,2.646,9.227,9.227,0,0,0,1.15,8.619,20.808,20.808,0,0,0,1.781,1.991l1.224,1.212.1-.841a21.633,21.633,0,0,1,3.586-9.138,20.268,20.268,0,0,1,13.169-8.1c.507-.074,1.063-.161,1.224-.2.272-.062-.383-.754-6-6.368-3.462-3.475-6.5-6.418-6.751-6.554A1.723,1.723,0,0,0,48.763-511.677Z"
                    transform="translate(-35.41 511.9)"
                    fill="#975ec9"
                  />
                  <path
                    id="Caminho_11"
                    data-name="Caminho 11"
                    d="M123.091-376.707a17.037,17.037,0,0,0-10.14,5.132,16.61,16.61,0,0,0-4.118,7.642,11.916,11.916,0,0,0-.334,3.66,13.431,13.431,0,0,0,.742,5.329,16.762,16.762,0,0,0,12.378,11.116,22.476,22.476,0,0,0,5.985.136,16.588,16.588,0,0,0,10.572-6.183,16.174,16.174,0,0,0,3.487-11.017,15.963,15.963,0,0,0-4.835-11.005,16.544,16.544,0,0,0-8.359-4.575A30.492,30.492,0,0,0,123.091-376.707Zm10.646,7.048a1.82,1.82,0,0,1,.816,2.473,6.958,6.958,0,0,1-1.051,1.261l-.791.779.247.7a3.35,3.35,0,0,1-.012,2.634,1.833,1.833,0,0,1-3.1-.025,3.192,3.192,0,0,1-.309-.952,1.848,1.848,0,0,0-1.88-1.793,1.785,1.785,0,0,0-1.781,1.83c0,.408.148.717.717,1.607,1.187,1.818,1.533,3.116,1.261,4.637a5.322,5.322,0,0,1-2.881,3.9,5.311,5.311,0,0,1-4.353.272l-.495-.173-1.014.964c-1.076,1.026-1.471,1.212-2.349,1.039a1.871,1.871,0,0,1-1.335-1.336c-.173-.878.012-1.274,1.039-2.349l.952-1.014-.21-.569a5.873,5.873,0,0,1-.3-1.3,1.686,1.686,0,0,1,.21-1.274,1.8,1.8,0,0,1,3.215-.012,3.916,3.916,0,0,1,.3,1.051,1.815,1.815,0,0,0,3.6.062,1.715,1.715,0,0,0-.532-1.62,5.579,5.579,0,0,1-1.533-3.883,5.489,5.489,0,0,1,3.19-5.045,5.865,5.865,0,0,1,3.92-.235l.742.26.866-.841a9.449,9.449,0,0,1,1.237-1.051A1.86,1.86,0,0,1,133.738-369.659Z"
                    transform="translate(-94.778 393.864)"
                    fill="#975ec9"
                  />
                  <path
                    id="Caminho_12"
                    data-name="Caminho 12"
                    d="M275.877-225.64a20.01,20.01,0,0,1-15.914,16.557c-.717.136-1.521.284-1.781.322l-.482.074,1.224,1.249c2.114,2.139,3.635,3,5.948,3.4a9.128,9.128,0,0,0,7.308-1.978l.668-.507,1.373-.025a9.138,9.138,0,0,0,5.886-2.114l.606-.532H282a12.837,12.837,0,0,0,2.127-.185,11.1,11.1,0,0,0,3.784-1.842c1.187-.989,1.484-1.83,1-2.77-.136-.247-3.067-3.277-6.529-6.727L276.1-227Z"
                    transform="translate(-225.131 262.952)"
                    fill="#975ec9"
                  />
                  <path
                    id="Caminho_13"
                    data-name="Caminho 13"
                    d="M8.816-181.687c-.544.284-8.2,7.939-8.483,8.483A1.716,1.716,0,0,0,.346-171.5a1.823,1.823,0,0,0,2.386.791c.544-.272,8.211-7.914,8.507-8.483a1.716,1.716,0,0,0-.012-1.706A1.844,1.844,0,0,0,8.816-181.687Z"
                    transform="translate(-0.112 223.247)"
                    fill="#975ec9"
                  />
                  <path
                    id="Caminho_14"
                    data-name="Caminho 14"
                    d="M12.526-121.687C11.981-121.4.618-110.039.333-109.5a1.716,1.716,0,0,0,.012,1.706A1.823,1.823,0,0,0,2.732-107c.544-.272,11.92-11.623,12.217-12.192a1.716,1.716,0,0,0-.012-1.706A1.844,1.844,0,0,0,12.526-121.687Z"
                    transform="translate(-0.112 170.821)"
                    fill="#975ec9"
                  />
                  <path
                    id="Caminho_15"
                    data-name="Caminho 15"
                    d="M98.816-91.687c-.544.284-8.2,7.939-8.483,8.483a1.716,1.716,0,0,0,.012,1.706,1.823,1.823,0,0,0,2.387.791c.544-.272,8.211-7.914,8.507-8.483a1.716,1.716,0,0,0-.012-1.706A1.844,1.844,0,0,0,98.816-91.687Z"
                    transform="translate(-78.83 144.531)"
                    fill="#975ec9"
                  />
                </svg>