<svg xmlns="http://www.w3.org/2000/svg" width="64.1" height="64.206" viewBox="0 0 64.1 64.206">
  <g id="mao" transform="translate(-0.95 512.936)">
    <g id="Grupo_23" data-name="Grupo 23" transform="translate(1 -512.785)">
      <path id="Caminho_66" data-name="Caminho 66" d="M201.932-512.749c-.1.025-.614.113-1.128.188a13.831,13.831,0,0,0-8.535,5.3,15.453,15.453,0,0,0-2.331,4.787,10.2,10.2,0,0,0-.338,3.446,10.2,10.2,0,0,0,.338,3.446,14.173,14.173,0,0,0,7.231,8.923,15.5,15.5,0,0,0,4.035,1.291,17.5,17.5,0,0,0,5.489-.251,13.447,13.447,0,0,0,6.166-3.484,14.014,14.014,0,0,0,3.822-6.479,10.2,10.2,0,0,0,.338-3.446,9.866,9.866,0,0,0-.338-3.409,13.9,13.9,0,0,0-10.54-10.076A22.185,22.185,0,0,0,201.932-512.749Zm4.2,2.82a11.233,11.233,0,0,1,8.422,10.4,11.272,11.272,0,0,1-15.4,11.016,11.437,11.437,0,0,1-6.88-8.2,11.338,11.338,0,0,1,9-13.41A13.254,13.254,0,0,1,206.13-509.929Z" transform="translate(-165.964 512.785)" fill="#fff" stroke="#fff" stroke-width="0.1"/>
      <path id="Caminho_67" data-name="Caminho 67" d="M269.654-472.693c-.464.288-.6.664-.6,1.654,0,.84-.013.865-.388,1.015a4.165,4.165,0,0,0-.978.752,3.722,3.722,0,0,0,.952,6,6.318,6.318,0,0,0,1.379.389c.714.088.915.175,1.2.5a1.1,1.1,0,0,1,.15,1.379c-.451.877-1.6.84-2.444-.063-.714-.764-1.554-.865-2.143-.238a1.274,1.274,0,0,0,.063,1.717,6.082,6.082,0,0,0,2.018,1.466c.113,0,.175.3.2,1.078.05.99.075,1.09.4,1.379a1.233,1.233,0,0,0,.84.3,1.233,1.233,0,0,0,.84-.3c.326-.276.351-.389.388-1.366s.075-1.078.326-1.14a3.077,3.077,0,0,0,.877-.589,3.726,3.726,0,0,0-1.892-6.529c-1.065-.163-1.391-.313-1.617-.752a1.069,1.069,0,0,1,.251-1.429c.614-.614,1.266-.539,2.243.276a1.259,1.259,0,0,0,2.03-1.2,3.3,3.3,0,0,0-1.629-1.529l-.564-.276v-.865c0-.952-.213-1.479-.714-1.7A1.193,1.193,0,0,0,269.654-472.693Z" transform="translate(-233.21 477.892)" fill="#fff" stroke="#fff" stroke-width="0.1"/>
      <path id="Caminho_68" data-name="Caminho 68" d="M58.6-299.72c-.977.324-1.616.8-3.056,2.291-.689.7-2.455,2.5-3.92,4l-2.668,2.726-.564-.523a5.105,5.105,0,0,0-2.78-1.257c-.463-.05-3.933-.1-7.715-.112H31.021l-1.165-.373a15.457,15.457,0,0,0-5.185-.759,15.973,15.973,0,0,0-9.118,2.577,17.067,17.067,0,0,0-4.2,4.17l-.7,1.071-.877.062c-1.49.112-1.728.286-5.423,3.959L1-278.569v1.183l7.214,7.245c3.97,3.971,7.339,7.3,7.49,7.382a1.2,1.2,0,0,0,1.177-.012c.188-.1,1.841-1.681,3.67-3.523,3.807-3.809,3.807-3.822,3.732-5.615l-.05-.959.952-.871c1.515-1.407.726-1.307,11.009-1.307,5.423,0,9.243-.05,9.882-.125a11.858,11.858,0,0,0,5.861-2.515c.927-.759,12.4-14.441,12.762-15.225a3.832,3.832,0,0,0,.3-2.054,3.781,3.781,0,0,0-.351-2.179,5.033,5.033,0,0,0-2.38-2.34A5.409,5.409,0,0,0,58.6-299.72Zm2.693,2.552a2.326,2.326,0,0,1,1.3,1.93,2.552,2.552,0,0,1-.138,1.17c-.238.56-10.8,13.171-11.923,14.242a8.459,8.459,0,0,1-3.444,1.93c-.927.286-1.014.286-10.708.361-6.763.05-9.894.112-10.17.212a8.749,8.749,0,0,0-2.755,1.718l-.877.8-4.9-4.88-4.91-4.88.6-.934c2.4-3.71,6.387-5.739,11.272-5.739a12.273,12.273,0,0,1,4.609.722l.989.349,7.7.062c7.678.062,7.7.062,8.229.336a2.491,2.491,0,0,1,0,4.432c-.514.274-.614.274-6.262.336l-5.749.062-.3.349a1.136,1.136,0,0,0,.063,1.606l.363.411,5.223.037c5.586.037,6.563-.025,7.627-.51a5.3,5.3,0,0,0,2.943-4.743c-.038-.411.163-.647,4.183-4.768,2.492-2.54,4.446-4.444,4.747-4.619A2.423,2.423,0,0,1,61.293-297.168ZM16.18-277.7l5.611,5.577V-271l-2.68,2.639c-1.478,1.457-2.73,2.652-2.793,2.652s-2.868-2.751-6.237-6.1l-6.137-6.1,2.78-2.764,2.78-2.751.526.075C10.544-283.287,10.832-283.013,16.18-277.7Z" transform="translate(-1 326.611)" fill="#fff" stroke="#fff" stroke-width="0.1"/>
    </g>
    <path id="Caminho_69" data-name="Caminho 69" d="M219.922-181.792a1.224,1.224,0,0,0-.213,1.9,1.211,1.211,0,0,0,1.917-.226A1.226,1.226,0,0,0,219.922-181.792Z" transform="translate(-190.988 -301.886)" fill="#fff" stroke="#fff" stroke-width="0.1"/>
  </g>
</svg>