<svg width="19" height="19" viewBox="0 0 19 19" fill="none" xmlns="http://www.w3.org/2000/svg">
<path d="M13.0625 0C9.785 0 7.125 2.66 7.125 5.9375C7.125 6.3175 7.125 6.6975 7.19625 7.05375L0 14.25V19H7.125V14.25H11.875V11.875L11.9463 11.8037C12.3025 11.875 12.6825 11.875 13.0625 11.875C16.34 11.875 19 9.215 19 5.9375C19 2.66 16.34 0 13.0625 0ZM14.25 2.375C15.5562 2.375 16.625 3.44375 16.625 4.75C16.625 6.05625 15.5562 7.125 14.25 7.125C12.9438 7.125 11.875 6.05625 11.875 4.75C11.875 3.44375 12.9438 2.375 14.25 2.375Z" fill="white"/>
</svg>
