<svg id="Grupo_25" data-name="Grupo 25" xmlns="http://www.w3.org/2000/svg" width="64" height="64" viewBox="0 0 64 64">
  <path id="Caminho_64" data-name="Caminho 64" d="M29.35.093A32.233,32.233,0,0,0,1.232,23.018,27.329,27.329,0,0,0,0,32.1a26.879,26.879,0,0,0,1.117,8.538,32.346,32.346,0,0,0,16.53,20.051,35.74,35.74,0,0,0,9.339,2.975,39.088,39.088,0,0,0,9.669.072,32.166,32.166,0,0,0,18.42-9.5A31.413,31.413,0,0,0,63,40.151a25.851,25.851,0,0,0,1-8.195,27.693,27.693,0,0,0-.988-8.137A32.281,32.281,0,0,0,41.282,1.366,34.477,34.477,0,0,0,29.35.093Zm6.5,4.705a27.985,27.985,0,0,1,10.571,3.79,28.6,28.6,0,0,1,9.282,9.5,27.425,27.425,0,0,1-.759,28.96,18.779,18.779,0,0,1-2.722,3.432,3.166,3.166,0,0,1-.372-1.044A20.6,20.6,0,0,0,35.509,34.659a24.045,24.045,0,0,0-7.019,0,20.656,20.656,0,0,0-15.484,12.3,18.447,18.447,0,0,0-.859,2.474,2.837,2.837,0,0,1-.372,1.044,18.98,18.98,0,0,1-2.722-3.432,27.392,27.392,0,0,1-.759-28.96,28.869,28.869,0,0,1,9.282-9.5,28.456,28.456,0,0,1,10.557-3.8A36.67,36.67,0,0,1,35.853,4.8Zm.029,33.994a15.356,15.356,0,0,1,4.784,2.074,16.191,16.191,0,0,1,6.575,8.481,19.164,19.164,0,0,1,.8,4.391c0,.6-.014.615-1.074,1.3a27.525,27.525,0,0,1-23.534,3.075,34.439,34.439,0,0,1-6.388-3.061l-1.132-.729L16,53.208A16.149,16.149,0,0,1,27.287,39.021a13.776,13.776,0,0,1,5.142-.643A13.05,13.05,0,0,1,35.882,38.792Z" fill="#975ec9"/>
  <path id="Caminho_65" data-name="Caminho 65" d="M9.217.138A11.424,11.424,0,0,0,1.773,5.144,10.247,10.247,0,0,0,0,11.284a10.263,10.263,0,0,0,1.758,6.126A11.314,11.314,0,1,0,13.967.28,14,14,0,0,0,9.217.138ZM12.9,4.69a6.831,6.831,0,0,1,4.963,8.2A6.939,6.939,0,0,1,12.9,17.877a6.847,6.847,0,0,1-8.224-4.963A6.83,6.83,0,0,1,12.9,4.69Z" transform="translate(20.727 9.129)" fill="#975ec9"/>
</svg>