<svg width="30" height="37" viewBox="0 0 30 37" fill="none" xmlns="http://www.w3.org/2000/svg">
<path d="M15 37C10.6562 35.9208 7.07 33.4616 4.24125 29.6222C1.4125 25.7828 -0.00124917 21.5204 8.2818e-07 16.835V5.55L15 0L30 5.55V16.835C30 21.5217 28.5856 25.7847 25.7569 29.6241C22.9281 33.4634 19.3425 35.9221 15 37ZM15 33.115C18.25 32.0975 20.9375 30.0625 23.0625 27.01C25.1875 23.9575 26.25 20.5658 26.25 16.835V8.09375L15 3.93125L3.75 8.09375V16.835C3.75 20.5658 4.8125 23.9575 6.9375 27.01C9.0625 30.0625 11.75 32.0975 15 33.115Z" fill="white"/>
</svg>
