<svg
  id="Wallet_Icon"
  data-name="Wallet Icon"
  width="48"
  height="48"
  viewBox="0 0 64 64"
>
  <path
    id="wallet-icon-1"
    data-name="wallet-icon-1"
    d="M10.962-511.529a14.565,14.565,0,0,0-5.4,2.129,17.278,17.278,0,0,0-1.55,1.327,12.353,12.353,0,0,0-3.739,7.313c-.1.739-.125,6.937-.088,20.71C.222-458.463.172-460.1.972-457.724a15.164,15.164,0,0,0,9.54,9.4c2.251.739,1.125.7,22.831.7,19.03,0,20.056-.013,21.006-.238a12.663,12.663,0,0,0,9.678-10.518c.188-1.327.188-21.111,0-22.438a12.938,12.938,0,0,0-4.539-8.026,15.526,15.526,0,0,0-4.826-2.442L53.6-491.57l-21.193-.063c-20.218-.062-21.231-.075-21.881-.3a7.307,7.307,0,0,1-3.138-1.941,7.412,7.412,0,0,1,2.076-12c1.75-.827.55-.789,22.831-.789,19.718,0,20.231,0,21.168.25a6.9,6.9,0,0,1,3.463,2c1.713,1.7,2.238,3.218,2.238,6.524,0,1.8.025,1.991.288,2.5a2.486,2.486,0,0,0,4.276.25c.375-.526.375-.538.413-2.529a14.948,14.948,0,0,0-.563-5.171,12.639,12.639,0,0,0-8.978-8.5l-1-.276-20.943-.012C21.14-511.629,11.375-511.592,10.962-511.529ZM7.361-487.8a17.035,17.035,0,0,0,2.063.764l1.163.338,21.256.075c20.156.063,21.293.075,21.944.288a7.9,7.9,0,0,1,5.189,5.66c.275,1.3.275,20.861,0,22.163a7.182,7.182,0,0,1-2.051,3.694,6.9,6.9,0,0,1-3.463,2c-.938.238-1.45.25-20.068.25-20.693,0-19.931.025-21.806-.689a10.25,10.25,0,0,1-5.752-5.76c-.7-1.841-.688-1.59-.688-16.4v-13.7l.663.451A11.071,11.071,0,0,0,7.361-487.8Z"
    transform="translate(-0.168 511.619)"
    fill="#975ec9"
  />
  <path
    id="wallet-icon-2"
    data-name="wallet-icon-2"
    d="M384.048-200.587A3.176,3.176,0,0,0,382-197.655a3.178,3.178,0,0,0,3.128,3.005,3.205,3.205,0,0,0,2.085-.92,3.006,3.006,0,0,0,0-4.293A3.006,3.006,0,0,0,384.048-200.587Z"
    transform="translate(-334.16 239.764)"
    fill="#975ec9"
  />
  <path
    id="wallet-icon-3"
    data-name="wallet-icon-3"
    d="M81.893-431.83a2.583,2.583,0,0,0-1.5,1.595,2.424,2.424,0,0,0,1.085,2.8l.479.294,20.356.037,20.356.025.555-.258a2.42,2.42,0,0,0,.668-3.913,2.929,2.929,0,0,0-.959-.589C122.226-432.038,82.561-432.038,81.893-431.83Z"
    transform="translate(-70.462 441.976)"
    fill="#975ec9"
  />
</svg>
